<?xml version="1.0" encoding="UTF-8"?>
<svg xmlns="http://www.w3.org/2000/svg" xmlns:xlink="http://www.w3.org/1999/xlink" width="311.81pt" height="138.06pt" viewBox="0 0 311.81 138.06" version="1.2">
<defs>
<clipPath id="clip1">
  <path d="M 0.960938 0 L 310.660156 0 L 310.660156 137.125 L 0.960938 137.125 Z M 0.960938 0 "/>
</clipPath>
</defs>
<g id="surface1">
<g clip-path="url(#clip1)" clip-rule="nonzero">
<path style=" stroke:none;fill-rule:nonzero;fill:rgb(93.501282%,15.583801%,31.402588%);fill-opacity:1;" d="M 310.664062 110.855469 L 0.960938 137.125 L 0.960938 -0.00390625 L 310.664062 -0.00390625 L 310.664062 110.855469 "/>
</g>
<path style=" stroke:none;fill-rule:nonzero;fill:rgb(100%,100%,100%);fill-opacity:1;" d="M 48.996094 70.683594 C 48.996094 65.515625 48.996094 59.257812 39.160156 59.257812 C 29.527344 59.257812 26.84375 64.027344 26.84375 68.992188 L 26.84375 79.722656 C 26.84375 84.886719 26.746094 91.042969 37.871094 91.042969 C 48.894531 91.042969 48.996094 84.886719 48.996094 79.722656 Z M 53.761719 70.582031 L 53.761719 79.820312 C 53.761719 88.460938 53.363281 95.515625 37.871094 95.515625 C 34.789062 95.515625 30.023438 95.613281 26.84375 91.34375 L 26.84375 95.019531 C 25.75 95.316406 23.167969 95.316406 22.074219 95.019531 L 22.074219 42.226562 C 23.167969 41.929688 25.75 41.929688 26.84375 42.226562 L 26.84375 58.5625 L 27.636719 58.5625 C 30.121094 54.789062 37.371094 54.789062 38.960938 54.789062 C 53.664062 54.789062 53.761719 61.84375 53.761719 70.582031 "/>
<path style=" stroke:none;fill-rule:nonzero;fill:rgb(100%,100%,100%);fill-opacity:1;" d="M 70.25 72.96875 L 92.5 72.96875 L 92.5 68.199219 C 92.5 62.636719 91.210938 59.257812 81.574219 59.257812 C 71.9375 59.257812 70.25 62.636719 70.25 72.96875 Z M 65.484375 81.011719 L 65.484375 72.371094 C 65.484375 59.65625 68.761719 54.789062 81.574219 54.789062 C 95.183594 54.789062 97.269531 60.054688 97.269531 70.285156 L 97.269531 77.4375 L 70.25 77.4375 L 70.25 81.707031 C 70.25 89.257812 75.613281 91.042969 82.765625 91.042969 C 85.945312 91.042969 91.804688 90.847656 95.183594 89.753906 C 95.679688 91.242188 96.078125 92.632812 96.175781 94.125 C 92.601562 95.117188 86.34375 95.515625 82.867188 95.515625 C 72.734375 95.515625 65.484375 91.839844 65.484375 81.011719 "/>
<path style=" stroke:none;fill-rule:nonzero;fill:rgb(100%,100%,100%);fill-opacity:1;" d="M 141.636719 95.019531 C 140.542969 95.316406 137.960938 95.316406 136.867188 95.019531 L 136.867188 71.574219 C 136.867188 65.320312 136.96875 59.257812 126.339844 59.257812 C 117.398438 59.257812 114.617188 62.339844 114.617188 68.992188 L 114.617188 95.019531 C 113.527344 95.316406 110.941406 95.316406 109.847656 95.019531 L 109.847656 55.484375 C 111.171875 55.328125 113.128906 55.386719 114.21875 55.484375 L 114.816406 58.5625 L 115.710938 58.5625 C 118.691406 54.789062 123.457031 54.789062 127.628906 54.789062 C 138.257812 54.789062 141.636719 61.246094 141.636719 69.6875 L 141.636719 95.019531 "/>
<path style=" stroke:none;fill-rule:nonzero;fill:rgb(100%,100%,100%);fill-opacity:1;" d="M 158.539062 72.96875 L 180.789062 72.96875 L 180.789062 68.199219 C 180.789062 62.636719 179.496094 59.257812 169.859375 59.257812 C 160.226562 59.257812 158.539062 62.636719 158.539062 72.96875 Z M 153.769531 81.011719 L 153.769531 72.371094 C 153.769531 59.65625 157.046875 54.789062 169.859375 54.789062 C 183.46875 54.789062 185.554688 60.054688 185.554688 70.285156 L 185.554688 77.4375 L 158.539062 77.4375 L 158.539062 81.707031 C 158.539062 89.257812 163.902344 91.042969 171.054688 91.042969 C 174.230469 91.042969 180.09375 90.847656 183.46875 89.753906 C 183.96875 91.242188 184.222656 92.40625 184.464844 94.125 C 180.886719 95.117188 174.628906 95.515625 171.152344 95.515625 C 161.019531 95.515625 153.769531 91.839844 153.769531 81.011719 "/>
<path style=" stroke:none;fill-rule:nonzero;fill:rgb(100%,100%,100%);fill-opacity:1;" d="M 208.347656 95.019531 L 194.539062 55.484375 C 195.234375 55.1875 198.613281 55.285156 199.507812 55.386719 L 212.917969 92.335938 L 226.328125 55.386719 C 227.21875 55.285156 230.597656 55.1875 231.292969 55.484375 L 217.488281 95.019531 C 215.898438 95.515625 209.9375 95.515625 208.347656 95.019531 "/>
<path style=" stroke:none;fill-rule:nonzero;fill:rgb(100%,100%,100%);fill-opacity:1;" d="M 267.347656 70.683594 C 267.347656 62.4375 267.246094 59.257812 256.222656 59.257812 C 245 59.257812 245.097656 62.339844 245.097656 70.683594 L 245.097656 79.621094 C 245.097656 87.765625 245 91.042969 256.222656 91.042969 C 267.246094 91.042969 267.347656 87.765625 267.347656 79.621094 Z M 272.117188 70.582031 L 272.117188 79.722656 C 272.117188 88.460938 271.519531 95.515625 256.222656 95.515625 C 240.726562 95.515625 240.332031 88.460938 240.332031 79.722656 L 240.332031 70.582031 C 240.332031 61.84375 240.726562 54.789062 256.222656 54.789062 C 271.519531 54.789062 272.117188 61.84375 272.117188 70.582031 "/>
<path style=" stroke:none;fill-rule:nonzero;fill:rgb(100%,100%,100%);fill-opacity:1;" d="M 289.546875 42.226562 L 289.546875 95.019531 C 288.453125 95.316406 285.871094 95.316406 284.777344 95.019531 L 284.777344 42.226562 C 285.871094 41.929688 288.453125 41.929688 289.546875 42.226562 "/>
</g>
</svg>
